<?xml version="1.0" encoding="UTF-8" standalone="no"?>
<!-- Created with Inkscape (http://www.inkscape.org/) -->

<svg
   xmlns:dc="http://purl.org/dc/elements/1.1/"
   xmlns:cc="http://creativecommons.org/ns#"
   xmlns:rdf="http://www.w3.org/1999/02/22-rdf-syntax-ns#"
   xmlns:svg="http://www.w3.org/2000/svg"
   xmlns="http://www.w3.org/2000/svg"
   xmlns:sodipodi="http://sodipodi.sourceforge.net/DTD/sodipodi-0.dtd"
   xmlns:inkscape="http://www.inkscape.org/namespaces/inkscape"
   id="svg3350"
   version="1.1"
   inkscape:version="0.91 r13725"
   width="534.22827"
   height="442.50394"
   viewBox="0 0 534.22827 442.50394"
   sodipodi:docname="ar_1.svg">
  <metadata
     id="metadata3356">
    <rdf:RDF>
      <cc:Work
         rdf:about="">
        <dc:format>image/svg+xml</dc:format>
        <dc:type
           rdf:resource="http://purl.org/dc/dcmitype/StillImage" />
        <dc:title></dc:title>
      </cc:Work>
    </rdf:RDF>
  </metadata>
  <defs
     id="defs3354" />
  <sodipodi:namedview
     pagecolor="#ffffff"
     bordercolor="#666666"
     borderopacity="1"
     objecttolerance="10"
     gridtolerance="10"
     guidetolerance="10"
     inkscape:pageopacity="0"
     inkscape:pageshadow="2"
     inkscape:window-width="2560"
     inkscape:window-height="1377"
     id="namedview3352"
     showgrid="false"
     inkscape:zoom="1"
     inkscape:cx="265.84867"
     inkscape:cy="197.7919"
     inkscape:window-x="-8"
     inkscape:window-y="-8"
     inkscape:window-maximized="1"
     inkscape:current-layer="svg3350"
     fit-margin-top="0"
     fit-margin-left="0"
     fit-margin-right="0"
     fit-margin-bottom="0" />
  <path
     style="fill:#000000"
     d="M 345.62035,441.8042 299.58503,398.288 256.45542,352.18224 209.60316,303.71512 63.071147,154.41209 C 48.407978,139.47163 26.437046,120.68355 33.873307,97.603765 37.851197,70.048815 60.712141,57.038365 77.806256,38.429982 94.777156,19.955735 113.88493,0.4933731 139.90126,0.0057531 c 19.17199,-0.359338 33.83476,16.1846599 47.56939,29.9294419 l 45.29855,45.33203 c 16.00146,16.01328 29.79358,34.893875 31.708,58.607165 1.07281,13.28853 -5.23077,20.78016 -12.34623,30.68295 -11.30245,15.72995 -41.19731,25.98258 -35.86964,46.11397 8.12608,30.7056 39.1592,-6.46892 51.83684,-19.27508 l 43.50925,-43.95032 49.44245,-48.621625 51.10084,-52.557309 c 11.55411,-11.88342 40.23605,-46.5920679 40.72133,-29.301096 l 2.16361,77.091615 -32.93162,34.792785 c -3.74649,22.98215 21.57961,37.20722 36.22517,51.26556 l 43.89793,43.99433 c 13.90889,15.89453 29.13026,32.74475 31.85215,54.62888 2.16865,26.30355 -19.79802,44.6602 -35.91661,61.86117 -14.71036,15.69818 -28.66306,31.22996 -45.23347,45.13307 -17.38828,14.58933 -32.62355,29.32799 -48.29823,45.51806 -14.68211,15.16486 -40.33581,10.64412 -59.01065,10.55285 z m 37.97621,-78.85399 47.23823,-46.87442 c 12.53174,-12.43523 36.6517,-28.36013 16.41358,-50.40043 L 402.43082,216.86685 C 390.40544,203.77062 376.90794,185.4597 353.68148,205.52244 l -40.5208,35.00138 c -16.23616,14.0246 -40.13281,32.18389 -16.01081,57.06504 l 68.07588,70.2183 c 5.13381,5.29538 13.43225,0.0436 18.37081,-4.85695 z M 174.80648,146.04901 c 20.97247,-16.4848 8.69051,-35.37145 -2.57994,-50.642135 -14.19151,-19.22852 -38.80863,-23.12105 -54.02826,-3.06566 -4.77172,6.28785 -6.46302,17.325565 -2.49444,22.362225 10.76423,13.66125 21.30562,29.30707 37.05216,36.96966 6.72417,3.27212 15.01002,-0.0901 22.05048,-5.62409 z m 48.80985,294.047 c -22.3837,-3.0317 -49.1775,5.80152 -65.23055,-14.85431 -9.93278,-19.29946 -30.02908,-14.63596 -43.98117,3.28937 -12.55395,16.12903 -37.593354,9.32735 -56.390797,8.75324 L 29.998377,436.42866 C 17.587335,420.95074 47.363348,407.87552 54.951797,395.01528 70.390276,381.17651 100.50269,358.58664 75.880996,337.96855 L 27.942469,288.72485 C 10.984442,271.30512 -3.6628596,253.30599 0.81592036,227.16301 3.2002924,213.24525 -0.59385764,157.59911 19.208851,177.64715 l 42.093704,42.6152 41.624875,41.19387 46.77015,47.95105 46.63531,50.10859 40.80501,43.15754 c 15.58405,16.48252 38.75349,38.71941 0.60048,37.77294 z"
     id="path3360"
     inkscape:connector-curvature="0"
     sodipodi:nodetypes="ccccscssssssssccsscccccsssccsssssssssssssssccsscccsssccccssc" />
</svg>
