<?xml version="1.0" encoding="UTF-8" standalone="no"?>
<!-- Created with Inkscape (http://www.inkscape.org/) -->

<svg
   xmlns:dc="http://purl.org/dc/elements/1.1/"
   xmlns:cc="http://creativecommons.org/ns#"
   xmlns:rdf="http://www.w3.org/1999/02/22-rdf-syntax-ns#"
   xmlns:svg="http://www.w3.org/2000/svg"
   xmlns="http://www.w3.org/2000/svg"
   xmlns:sodipodi="http://sodipodi.sourceforge.net/DTD/sodipodi-0.dtd"
   xmlns:inkscape="http://www.inkscape.org/namespaces/inkscape"
   id="svg3364"
   version="1.1"
   inkscape:version="0.91 r13725"
   width="387.53363"
   height="468.65836"
   viewBox="0 0 387.53363 468.65836"
   sodipodi:docname="ar_2.svg">
  <metadata
     id="metadata3370">
    <rdf:RDF>
      <cc:Work
         rdf:about="">
        <dc:format>image/svg+xml</dc:format>
        <dc:type
           rdf:resource="http://purl.org/dc/dcmitype/StillImage" />
        <dc:title></dc:title>
      </cc:Work>
    </rdf:RDF>
  </metadata>
  <defs
     id="defs3368" />
  <sodipodi:namedview
     pagecolor="#ffffff"
     bordercolor="#666666"
     borderopacity="1"
     objecttolerance="10"
     gridtolerance="10"
     guidetolerance="10"
     inkscape:pageopacity="0"
     inkscape:pageshadow="2"
     inkscape:window-width="2560"
     inkscape:window-height="1377"
     id="namedview3366"
     showgrid="false"
     inkscape:zoom="2"
     inkscape:cx="-97.433213"
     inkscape:cy="241.0587"
     inkscape:window-x="-8"
     inkscape:window-y="-8"
     inkscape:window-maximized="1"
     inkscape:current-layer="svg3364"
     fit-margin-top="0"
     fit-margin-left="0"
     fit-margin-right="0"
     fit-margin-bottom="0" />
  <path
     style="fill:#000000"
     d="m 159.01611,468.16464 c -23.10398,0.44517 -36.21682,-22.05093 -51.75249,-37.0583 L 59.471973,384.93988 22.381403,348.43117 C 7.4194292,333.1713 -5.2121158,311.74295 2.1688512,289.7833 4.9563312,268.75715 24.712023,259.43011 35.583473,243.20347 58.035233,227.57301 22.866583,212.03378 14.724783,197.95924 -1.1395278,181.44145 -3.4822598,156.88067 6.9719762,136.94577 L 50.750623,90.276714 113.66078,27.890978 C 128.79846,16.212572 142.7366,-2.0943837 164.05948,0.19596727 188.62197,-2.2107987 204.712,18.937231 220.90993,33.780067 l 42.46811,42.860907 51.92285,50.902856 40.93453,39.58543 c 16.17372,13.92604 19.61228,26.38753 27.82656,54.32962 2.64654,20.10415 9.7937,46.89842 -9.79037,45.05088 L 331.97197,227.96856 302.35131,197.8229 255.18919,150.55601 200.30977,96.329694 c -11.34923,-11.21417 -20.37422,-28.0031 -36.86205,-28.43872 -10.62844,-0.28081 -17.46418,7.14349 -25.16325,13.37112 L 106.3795,107.0694 c -21.941027,15.30741 -44.538607,42.8659 -35.054127,63.50287 5.83591,12.69818 15.09351,23.44878 29.234917,9.7652 l 46.55665,-45.04937 c 22.1143,-20.27436 22.04269,-8.48385 45.16753,9.87107 l 63.74708,61.5068 39.90261,40.09284 c 13.09963,11.14028 25.32219,25.18162 31.29344,41.0978 5.99498,22.25996 -4.48981,44.49479 -21.72658,59.39177 l -39.56215,41.47369 -43.8603,42.85296 c -13.29701,12.99162 -25.66194,26.2722 -42.20141,34.79291 -7.46541,3.84599 -13.38625,1.65268 -20.86105,1.7967 z m 0.28195,-81.21117 2.9752,-142.9688 c 15.47275,-11.18975 23.17844,8.04853 36.6583,33.48277 l 27.20985,48.54482 c 7.04338,17.53615 24.48941,-11.62191 32.2228,-19.14016 3.59758,-21.04728 -20.13378,-28.98339 -33.82522,-45.19814 L 185.64631,224.14097 C 171.45184,211.66778 165.14879,202.9778 149.68885,216.244 l -50.324187,48.14697 c -14.6749,12.58658 -36.36974,26.42266 -28.64269,44.75 l 36.249997,38.07954 41.01309,39.11343 c 3.00216,2.86311 11.21734,5.21654 11.313,0.61953 z"
     id="path3374"
     inkscape:connector-curvature="0"
     sodipodi:nodetypes="ssccccccccccccccccccssscsscccccccssssccccccccccss" />
</svg>
