<?xml version="1.0" encoding="UTF-8" standalone="no"?>
<!-- Created with Inkscape (http://www.inkscape.org/) -->

<svg
   xmlns:dc="http://purl.org/dc/elements/1.1/"
   xmlns:cc="http://creativecommons.org/ns#"
   xmlns:rdf="http://www.w3.org/1999/02/22-rdf-syntax-ns#"
   xmlns:svg="http://www.w3.org/2000/svg"
   xmlns="http://www.w3.org/2000/svg"
   xmlns:sodipodi="http://sodipodi.sourceforge.net/DTD/sodipodi-0.dtd"
   xmlns:inkscape="http://www.inkscape.org/namespaces/inkscape"
   id="svg3378"
   version="1.1"
   inkscape:version="0.91 r13725"
   width="327.69016"
   height="400.25412"
   viewBox="0 0 327.69016 400.25412"
   sodipodi:docname="ar_3.svg">
  <metadata
     id="metadata3384">
    <rdf:RDF>
      <cc:Work
         rdf:about="">
        <dc:format>image/svg+xml</dc:format>
        <dc:type
           rdf:resource="http://purl.org/dc/dcmitype/StillImage" />
        <dc:title></dc:title>
      </cc:Work>
    </rdf:RDF>
  </metadata>
  <defs
     id="defs3382" />
  <sodipodi:namedview
     pagecolor="#ffffff"
     bordercolor="#666666"
     borderopacity="1"
     objecttolerance="10"
     gridtolerance="10"
     guidetolerance="10"
     inkscape:pageopacity="0"
     inkscape:pageshadow="2"
     inkscape:window-width="2003"
     inkscape:window-height="1105"
     id="namedview3380"
     showgrid="false"
     inkscape:zoom="2"
     inkscape:cx="-79.105332"
     inkscape:cy="202.23682"
     inkscape:window-x="0"
     inkscape:window-y="0"
     inkscape:window-maximized="0"
     inkscape:current-layer="svg3378"
     fit-margin-top="0"
     fit-margin-left="0"
     fit-margin-right="0"
     fit-margin-bottom="0" />
  <path
     style="fill:#000000"
     d="m 121.61214,396.41561 c -7.2396,-3.5963 -13.7467,-9.47976 -48.899686,-44.21324 -22.30186,-22.03571 -40.96989,-41.44196 -41.4845,-43.125 -4.922559,-9.58383 -6.850457,-21.53721 -4.49993,-31.89117 0.81734,-3.24596 3.11263,-8.26586 5.10064,-11.15535 1.98802,-2.88947 29.10027,-30.86064 60.24945,-62.15814 31.149176,-31.29748 64.718446,-65.16226 74.598386,-75.25505 9.87993,-10.09277 18.75363,-18.18172 19.71931,-17.97543 1.4649,0.31293 1.77398,7.67541 1.86549,44.43757 0.10113,40.619 0.276,44.0625 2.23773,44.0625 1.76015,0 8.40781,-6.11264 23.83896,-21.92027 1.03125,-1.05642 15.51562,-15.40569 32.1875,-31.88729 16.67187,-16.4816 30.3125,-30.80603 30.3125,-31.83205 0,-1.02602 -12.9375,-14.837043 -28.75,-30.691143 -15.8125,-15.85411 -28.75,-29.35296 -28.75,-29.99745 0,-0.64449 -1.31424,-1.1718 -2.92054,-1.1718 -3.95275,0 -14.23876,9.8199 -96.56332,92.187503 -37.964526,37.98437 -69.642846,69.0625 -70.396276,69.0625 -13.07502,12.99343 -26.463614,28.01712 -40.47545,40.85269 -7.66471,6.93132 -8.12741004,5.47057 -8.78294004,-27.72769 -0.4357,-22.06566 -0.1898,-29.47656 1.05763004,-31.875 0.89392,-1.71875 5.98401,-7.0625 11.31131,-11.875 9.93086,-8.97119 51.13204,-49.79809 68.18214,-67.56274 5.24564,-5.4655 20.394496,-20.343513 33.664106,-33.062263 22.87369,-21.92413 28.12961,-27.15253 52.77646,-52.5 12.33747,-12.688182 23.65129,-22.3531282 29.64688,-25.3261552 10.6366,-5.274358 26.38327,-5.061853 38.25005,0.516191 3.10771,1.460798 9.77021,6.9687252 15.20345,12.5687732 5.31933,5.482651 15.859,16.253932 23.4215,23.93618 17.52631,17.803841 45.5665,47.630621 47.46393,50.488131 2.77591,4.18049 5.43436,13.480653 6.04199,21.136983 0.72368,9.11849 -2.28877,19.71575 -7.34391,25.83449 -10.55478,14.29069 -27.75668,27.01251 -38.03701,39.15591 -5.58815,6.63799 -68.44226,70.1687 -102.72031,103.82605 -4.34758,4.26886 -9.07045,9.05011 -10.49527,10.625 -6.52272,7.2098 -25.99437,24.73845 -27.48062,24.73845 -0.91095,0 -1.96918,-0.5063 -2.35163,-1.12511 -0.38243,-0.61883 -0.77682,-20.02508 -0.87638,-43.125 l -0.18104,-41.99989 -2.95564,0 c -1.64147,0 -4.2025,1.45574 -5.75987,3.27401 -3.42239,3.99574 -28.66624,29.22599 -29.241726,29.22599 -0.22661,0 -4.91775,4.59746 -10.42476,10.21657 -7.72733,7.88463 -10.01275,11.01994 -10.01275,13.73619 0,2.89877 3.93549,7.43575 22.310936,25.72091 32.03094,31.87357 34.52062,34.07633 38.51498,34.07633 2.70482,0 6.25949,-2.8504 16.75764,-13.4375 7.32854,-7.39063 20.19118,-19.90625 28.58365,-27.8125 8.39249,-7.90625 16.76627,-16.00819 18.60843,-18.00431 6.00468,-6.50659 62.16324,-62.33803 73.84285,-73.41274 13.26761,-13.86997 28.16883,-28.45298 40.4405,-39.73099 9.27228,-8.45959 9.46388,-7.91043 9.24802,26.5053 l -0.18201,29.01774 -3.75,4.69792 c -13.79662,12.61364 -27.07354,27.56891 -38.125,38.71158 -16.5,16.6159 -30,30.3998 -30,30.63089 0,0.2311 -3.73852,3.91655 -8.30785,8.18988 -4.56931,4.27335 -25.13084,24.5041 -45.69227,44.95723 -14.14598,14.11835 -28.22465,28.92612 -43.77771,39.88532 -3.08243,2.19489 -6.03126,2.79347 -15.81796,3.21082 -11.59604,0.49452 -12.32992,0.36361 -20.38006,-3.63533 z"
     id="path3388"
     inkscape:connector-curvature="0"
     sodipodi:nodetypes="ssccsssssssssssssccssssssssssssccssscscssssssssssccscccssccss" />
</svg>
