<?xml version="1.0" encoding="UTF-8" standalone="no"?>
<svg id="svg3336" xmlns:rdf="http://www.w3.org/1999/02/22-rdf-syntax-ns#" xmlns="http://www.w3.org/2000/svg" height="95pt" width="532pt" version="1.1" xmlns:cc="http://creativecommons.org/ns#" xmlns:dc="http://purl.org/dc/elements/1.1/" viewBox="0 0 532 95">
 <metadata id="metadata3408">
  <rdf:RDF>
   <cc:Work rdf:about="">
    <dc:format>image/svg+xml</dc:format>
    <dc:type rdf:resource="http://purl.org/dc/dcmitype/StillImage"/>
    <dc:title/>
   </cc:Work>
  </rdf:RDF>
 </metadata>
 <g id="layer1">
  <g>
   <path id="path3340-1" d="m401.13 3.585h6.7c-0.03 4.92 0.03 9.84-0.05 14.76-4.88 0.23-9.77 0.08-14.65 0.15v-6.58c2.66 0.02 5.33 0.02 8 0.03v-8.36z"/>
   <path id="path3342-1" d="m368.86 7.585h6.26c-0.03 4.71-0.02 9.41-0.02 14.12h-6.22c-0.01-4.71 0-9.41-0.02-14.12z"/>
   <path id="path3344-9" d="m44.58 21.635c2.01-0.02 4.02 0.05 6.02 0.08 5.67 1.77 11.14 6.3 11.51 12.59 0.07 10.4-0.02 20.81 0.04 31.22 0.51 7.84-7.31 14.81-15 14.08-9.36-0.04-18.71-0.01-28.06-0.02-0.07 4.68-0.04 9.35-0.04 14.03h-14.92v-6.18c2.78 0 5.56 0 8.34 0.01 0.1-2.62 0.11-5.24 0.09-7.86h6.57v-6.78c11.24-0.01 22.48 0.18 33.72-0.1 1.28-1.49 2.94-3 2.7-5.17 0.08-10.66-0.02-21.32 0.04-31.98 0.21-2.35-0.66-4.55-1.56-6.66-2.06-3.61-5.76-5.65-9.45-7.26z"/>
   <path id="path3346-4" d="m106.57 21.645c1.99-0.01 3.98 0.05 5.97 0.1 5.41 1.7 9.87 5.9 11.51 11.38 0.18 8.3 0.03 16.6 0.08 24.9-14.33-0.03-28.67 0-43-0.01v-6.43c11.98-0.04 23.96 0.08 35.93-0.07 0.1-6.81 0.14-13.62-0.03-20.43-2.19-4.39-6.01-7.52-10.46-9.44z"/>
   <path id="path3348-2" d="m164.93 21.705h6.22v14.82c-9.45-0.01-18.9 0-28.34 0v-6.32c7.32-0.01 14.64 0.01 21.96 0 0.16-2.83 0.16-5.67 0.16-8.5z"/>
   <path id="path3350-1" d="m226.36 21.715c2.26-0.01 4.51-0.02 6.77-0.05v14.9c-13.91-0.19-27.83 0.18-41.74-0.19-0.47 0.63-0.94 1.25-1.42 1.88 0.06 8.78-0.01 17.55 0.05 26.33h-6.68c0.03-9.36 0.04-18.72-0.01-28.08 1.98 0.08 3.95 0.17 5.92 0.35 0.38-0.45 0.75-0.9 1.12-1.36-0.14-1.77-0.25-3.54-0.33-5.31 12.1 0.05 24.19 0.01 36.29 0.02 0.03-2.83 0.03-5.66 0.03-8.49z"/>
   <path id="path3352-3" d="m277.31 21.615c2.06 0.02 4.13 0.08 6.19 0.14 5.44 1.7 9.78 6.06 11.53 11.48 0.14 8.26 0.01 16.52 0.07 24.78h-43.02c0-2.14 0-4.29 0.01-6.43 11.98-0.06 23.97 0.12 35.95-0.09 0.06-6.41 0.31-12.85-0.09-19.24-1.2-5.27-6-8.54-10.64-10.64z"/>
   <path id="path3354-8" d="m338.65 21.575c7.81-1.17 16.07 3.91 17.84 11.72 0.27 10.42-0.01 20.85 0.13 31.27 0.86 7.93-6.53 15.52-14.44 15.04-9.54-0.03-19.07-0.02-28.6-0.02 0-2.25 0-4.5 0.01-6.75 9.5 0.01 19.01-0.03 28.51 0.03 1.89-0.03 3.83 0.06 5.67-0.48 1.46-1.51 2.45-3.59 2.36-5.72 0.04-9.69-0.05-19.37 0.03-29.06 0-1.89 0.07-3.84-0.66-5.63-0.11-0.49-0.35-1.46-0.47-1.95-2.15-4.2-6.1-6.78-10.38-8.45z"/>
   <path id="path3356-2" d="m383.13 21.665c2.21 0.03 4.42 0.04 6.64 0.05-0.02 4.93 0.03 9.86-0.05 14.79-4.86 0.03-9.73 0.01-14.59 0.02v-6.31c2.66 0 5.33-0.01 7.99-0.11 0.01-2.81 0.01-5.62 0.01-8.44z"/>
   <path id="path3358-2" d="m401.13 21.675c2.23 0.02 4.46 0.03 6.69 0.04 0.02 19.29-0.04 38.58 0.03 57.87h-14.72v-6.77c2.66 0.02 5.33 0.02 8 0.01v-51.15z"/>
   <path id="path3360-5" d="m451.47 21.635c2.03-0.01 4.07 0.05 6.11 0.1 5.74 1.82 11.03 6.51 11.53 12.82 0.04 10.69 0.03 21.38 0.01 32.07-0.13 4.45-3.09 8.05-6.31 10.82-2.43 1.06-4.9 2.37-7.65 2.15-10.02-0.01-20.04-0.02-30.07 0-4.76 0.22-9.01-2.7-11.84-6.32-1.87-3.43-2.57-7.28-2.07-11.16 0.56 1.34 1.06 2.7 1.57 4.06 1.76 2.79 4.46 4.85 7.41 6.26 3.61 0.77 7.33 0.29 10.99 0.4 9.51-0.12 19.04 0.25 28.54-0.21 0.81-0.85 1.63-1.69 2.47-2.52 0.26-10.53 0.03-21.06 0.13-31.59-0.02-2.81 0.24-5.7-0.7-8.41-2.1-4.11-5.96-6.74-10.12-8.47z"/>
   <path id="path3362-9" d="m513.05 21.575c7.93-1.22 15.61 4.14 17.93 11.66 0.13 15.45-0.04 30.9 0.09 46.35h-14.93c0.02-2.25 0.03-4.5 0.04-6.75 2.65 0 5.29 0 7.95-0.02-0.02-12.81 0.03-25.62-0.02-38.43-0.04-6.33-5.71-10.63-11.06-12.81z"/>
   <path id="path3364-3" d="m19.03 30.185c9.37 0.04 18.73 0.02 28.1 0.02v6.33c-8.94-0.12-17.88 0.19-26.82-0.18-0.42 0.66-0.84 1.32-1.27 1.97 0.02 8.76-0.02 17.51 0.03 26.26h-6.51c0.02-9.36 0.03-18.72-0.01-28.08 1.87 0.08 3.74 0.17 5.6 0.33 0.42-0.4 0.83-0.82 1.23-1.24-0.15-1.8-0.26-3.6-0.35-5.41z"/>
   <path id="path3366-9" d="m81.13 30.205c9.33 0 18.67 0.02 28-0.01v6.37c-9.33-0.08-18.67-0.04-28-0.02v-6.34z"/>
   <path id="path3368-5" d="m252.09 30.205c9.34-0.01 18.69 0.02 28.04-0.01v6.36c-9.35-0.07-18.69-0.02-28.04-0.03 0-2.1-0.01-4.21 0-6.32z"/>
  </g>
  <a id="a3616" transform="translate(12.8,-117.6)">
   <path id="path3370-2" d="m300.79 147.8c9.42 0 18.84-0.01 28.27 0.01-0.01 2.1-0.01 4.2-0.01 6.31h-28.26v-6.32z"/>
  </a>
  <g>
   <path id="path3372-5" d="m426.13 30.195c9.33 0.02 18.67 0.02 28 0-0.01 2.12 0 4.24 0 6.37-9.33-0.07-18.67-0.07-28 0 0-2.13-0.01-4.25 0-6.37z"/>
   <path id="path3374-0" d="m488.02 30.205c9.37 0 18.74 0.01 28.11 0-0.01 2.11 0 4.22 0 6.34-9.37-0.04-18.74-0.01-28.11-0.02v-6.32z"/>
   <path id="path3376-3" d="m74.13 36.585h6.79c-0.02 2.32-0.03 4.63-0.03 6.95-2.26 0-4.51 0.01-6.76 0.01v-6.96z"/>
   <path id="path3378-4" d="m136.13 36.585h6.47c-0.01 14.33-0.04 28.67 0.01 43h-14.59c0.01-2.25 0.01-4.5 0.01-6.74 2.7-0.01 5.4-0.01 8.1-0.04 0.01-12.08 0-24.15 0-36.22z"/>
   <path id="path3380-5" d="m245.13 36.585h6.69c-0.02 2.31-0.02 4.63-0.02 6.95-2.23 0.01-4.45 0.01-6.67 0.03v-6.98z"/>
   <path id="path3382-4" d="m307.13 36.585h6.3c0.02 9.33 0 18.67 0.01 28h-6.31v-28z"/>
   <path id="path3384-6" d="m368.87 36.585h6.25c-0.03 9.33-0.03 18.67 0 28h-6.25c0-9.33 0.01-18.67 0-28z"/>
   <path id="path3386-7" d="m419.24 36.585h6.76c-0.06 9.33-0.04 18.67-0.01 28h-6.73c0.02-9.33 0.04-18.67-0.02-28z"/>
   <path id="path3388-3" d="m481.13 36.585h6.63c-0.02 14.33-0.04 28.67 0.02 43h-14.65v-6.76c2.66 0.01 5.33 0.01 8-0.01v-36.23z"/>
   <path id="path3390-6" d="m74.13 58.225c2.25-0.01 4.51-0.01 6.76-0.03 0 2.13 0 4.26 0.02 6.39h-6.78v-6.36z"/>
   <path id="path3392-7" d="m245.13 58.215c2.22 0 4.45 0 6.68-0.02-0.01 2.13-0.01 4.26 0 6.39h-6.68v-6.37z"/>
   <path id="path3394-5" d="m66.1 62.175c1.54 5.72 6.75 11.13 13.02 10.68 12.67-0.04 25.34-0.01 38.01-0.02v-8.02c2.33 0 4.67-0.01 7-0.02v14.79c-14.68 0-29.36-0.01-44.04 0.01-5.43 0.19-10.63-3.36-12.83-8.27-1.54-2.8-1.07-6.09-1.16-9.15z"/>
   <path id="path3396-7" d="m175.24 62.075c0.39 1.01 0.75 2.03 1.09 3.07 1.16 2.42 3.03 4.38 5.26 5.85 1.67 1.07 3.52 1.97 5.57 1.83 13.06 0.04 26.13 0 39.2 0.01v-8.01c2.26-0.01 4.51-0.02 6.77-0.05v14.81c-14.69 0-29.38 0-44.07 0.01-4.77 0.22-8.96-2.75-11.8-6.36-1.8-3.45-2.66-7.28-2.02-11.16z"/>
   <path id="path3398-7" d="m238.59 72.145c-2-2.85-1.35-6.43-1.53-9.69 1.17 4.57 4.76 7.73 8.61 10.11 14.14 0.61 28.31 0.11 42.46 0.26v-8.04c2.32 0.02 4.64 0.03 6.96 0.03 0 4.92-0.02 9.85 0.02 14.77-14.69 0.01-29.39-0.02-44.09 0.02-5.11 0.17-10.1-2.94-12.43-7.46z"/>
   <path id="path3400-3" d="m360.18 62.115c1.67 4.59 4.91 8.41 9.37 10.49 4.51 0.36 9.05 0.23 13.58 0.19v-7.99c2.12 0 4.24-0.02 6.37-0.04 0.52 4.92 0.15 9.88 0.3 14.82-6.06 0-12.12 0.01-18.18-0.01-5.65-1.42-9.7-6.05-11.32-11.51-0.03-1.99-0.1-3.97-0.12-5.95z"/>
   <path id="path3402-7" d="m307.14 79.585h6.29c0.01 4.68 0.01 9.35 0.01 14.03h-14.6v-6.17c2.73 0 5.47-0.01 8.2-0.1 0.08-2.59 0.1-5.17 0.1-7.76z"/>
  </g>
 </g>
 <g id="layer2" fill="#06f119">
  <path id="path3340" style="" d="m399 2h6.7c-0.03 4.92 0.03 9.84-0.05 14.76-4.88 0.23-9.77 0.08-14.65 0.15v-6.58c2.66 0.02 5.33 0.02 8 0.03v-8.36z"/>
  <path id="path3342" style="" d="m366.73 6h6.26c-0.03 4.71-0.02 9.41-0.02 14.12h-6.22c-0.01-4.71 0-9.41-0.02-14.12z"/>
  <path id="path3344" style="" d="m42.45 20.05c2.01-0.02 4.02 0.05 6.02 0.08 5.67 1.77 11.14 6.3 11.51 12.59 0.07 10.4-0.02 20.81 0.04 31.22 0.51 7.84-7.31 14.81-15 14.08-9.36-0.04-18.71-0.01-28.06-0.02-0.07 4.68-0.04 9.35-0.04 14.03h-14.92v-6.18c2.78 0 5.56 0 8.34 0.01 0.1-2.62 0.11-5.24 0.09-7.86h6.57v-6.78c11.24-0.01 22.48 0.18 33.72-0.1 1.28-1.49 2.94-3 2.7-5.17 0.08-10.66-0.02-21.32 0.04-31.98 0.21-2.35-0.66-4.55-1.56-6.66-2.06-3.61-5.76-5.65-9.45-7.26z"/>
  <path id="path3346" style="" d="m104.44 20.06c1.99-0.01 3.98 0.05 5.97 0.1 5.41 1.7 9.87 5.9 11.51 11.38 0.18 8.3 0.03 16.6 0.08 24.9-14.33-0.03-28.67 0-43-0.01v-6.43c11.98-0.04 23.96 0.08 35.93-0.07 0.1-6.81 0.14-13.62-0.03-20.43-2.19-4.39-6.01-7.52-10.46-9.44z"/>
  <path id="path3348" style="" d="m162.8 20.12h6.22v14.82c-9.45-0.01-18.9 0-28.34 0v-6.32c7.32-0.01 14.64 0.01 21.96 0 0.16-2.83 0.16-5.67 0.16-8.5z"/>
  <path id="path3350" style="" d="m224.23 20.13c2.26-0.01 4.51-0.02 6.77-0.05v14.9c-13.91-0.19-27.83 0.18-41.74-0.19-0.47 0.63-0.94 1.25-1.42 1.88 0.06 8.78-0.01 17.55 0.05 26.33h-6.68c0.03-9.36 0.04-18.72-0.01-28.08 1.98 0.08 3.95 0.17 5.92 0.35 0.38-0.45 0.75-0.9 1.12-1.36-0.14-1.77-0.25-3.54-0.33-5.31 12.1 0.05 24.19 0.01 36.29 0.02 0.03-2.83 0.03-5.66 0.03-8.49z"/>
  <path id="path3352" style="" d="m275.18 20.03c2.06 0.02 4.13 0.08 6.19 0.14 5.44 1.7 9.78 6.06 11.53 11.48 0.14 8.26 0.01 16.52 0.07 24.78h-43.02c0-2.14 0-4.29 0.01-6.43 11.98-0.06 23.97 0.12 35.95-0.09 0.06-6.41 0.31-12.85-0.09-19.24-1.2-5.27-6-8.54-10.64-10.64z"/>
  <path id="path3354" style="" d="m336.52 19.99c7.81-1.17 16.07 3.91 17.84 11.72 0.27 10.42-0.01 20.85 0.13 31.27 0.86 7.93-6.53 15.52-14.44 15.04-9.54-0.03-19.07-0.02-28.6-0.02 0-2.25 0-4.5 0.01-6.75 9.5 0.01 19.01-0.03 28.51 0.03 1.89-0.03 3.83 0.06 5.67-0.48 1.46-1.51 2.45-3.59 2.36-5.72 0.04-9.69-0.05-19.37 0.03-29.06 0-1.89 0.07-3.84-0.66-5.63-0.11-0.49-0.35-1.46-0.47-1.95-2.15-4.2-6.1-6.78-10.38-8.45z"/>
  <path id="path3356" style="" d="m381 20.08c2.21 0.03 4.42 0.04 6.64 0.05-0.02 4.93 0.03 9.86-0.05 14.79-4.86 0.03-9.73 0.01-14.59 0.02v-6.31c2.66 0 5.33-0.01 7.99-0.11 0.01-2.81 0.01-5.62 0.01-8.44z"/>
  <path id="path3358" style="" d="m399 20.09c2.23 0.02 4.46 0.03 6.69 0.04 0.02 19.29-0.04 38.58 0.03 57.87h-14.72v-6.77c2.66 0.02 5.33 0.02 8 0.01v-51.15z"/>
  <path id="path3360" style="" d="m449.34 20.05c2.03-0.01 4.07 0.05 6.11 0.1 5.74 1.82 11.03 6.51 11.53 12.82 0.04 10.69 0.03 21.38 0.01 32.07-0.13 4.45-3.09 8.05-6.31 10.82-2.43 1.06-4.9 2.37-7.65 2.15-10.02-0.01-20.04-0.02-30.07 0-4.76 0.22-9.01-2.7-11.84-6.32-1.87-3.43-2.57-7.28-2.07-11.16 0.56 1.34 1.06 2.7 1.57 4.06 1.76 2.79 4.46 4.85 7.41 6.26 3.61 0.77 7.33 0.29 10.99 0.4 9.51-0.12 19.04 0.25 28.54-0.21 0.81-0.85 1.63-1.69 2.47-2.52 0.26-10.53 0.03-21.06 0.13-31.59-0.02-2.81 0.24-5.7-0.7-8.41-2.1-4.11-5.96-6.74-10.12-8.47z"/>
  <path id="path3362" style="" d="m510.92 19.99c7.93-1.22 15.61 4.14 17.93 11.66 0.13 15.45-0.04 30.9 0.09 46.35h-14.93c0.02-2.25 0.03-4.5 0.04-6.75 2.65 0 5.29 0 7.95-0.02-0.02-12.81 0.03-25.62-0.02-38.43-0.04-6.33-5.71-10.63-11.06-12.81z"/>
  <path id="path3364" style="" d="m16.9 28.6c9.37 0.04 18.73 0.02 28.1 0.02v6.33c-8.94-0.12-17.88 0.19-26.82-0.18-0.42 0.66-0.84 1.32-1.27 1.97 0.02 8.76-0.02 17.51 0.03 26.26h-6.51c0.02-9.36 0.03-18.72-0.01-28.08 1.87 0.08 3.74 0.17 5.6 0.33 0.42-0.4 0.83-0.82 1.23-1.24-0.15-1.8-0.26-3.6-0.35-5.41z"/>
  <path id="path3366" style="" d="m79 28.62c9.33 0 18.67 0.02 28-0.01v6.37c-9.33-0.08-18.67-0.04-28-0.02v-6.34z"/>
  <path id="path3368" style="" d="m249.96 28.62c9.34-0.01 18.69 0.02 28.04-0.01v6.36c-9.35-0.07-18.69-0.02-28.04-0.03 0-2.1-0.01-4.21 0-6.32z"/>
  <path id="path3370" style="" d="m311.46 28.62c9.42 0 18.84-0.01 28.27 0.01-0.01 2.1-0.01 4.2-0.01 6.31h-28.26v-6.32z"/>
  <path id="path3372" style="" d="m424 28.61c9.33 0.02 18.67 0.02 28 0-0.01 2.12 0 4.24 0 6.37-9.33-0.07-18.67-0.07-28 0 0-2.13-0.01-4.25 0-6.37z"/>
  <path id="path3374" style="" d="m485.89 28.62c9.37 0 18.74 0.01 28.11 0-0.01 2.11 0 4.22 0 6.34-9.37-0.04-18.74-0.01-28.11-0.02v-6.32z"/>
  <path id="path3376" style="" d="m72 35h6.79c-0.02 2.32-0.03 4.63-0.03 6.95-2.26 0-4.51 0.01-6.76 0.01v-6.96z"/>
  <path id="path3378" style="" d="m134 35h6.47c-0.01 14.33-0.04 28.67 0.01 43h-14.59c0.01-2.25 0.01-4.5 0.01-6.74 2.7-0.01 5.4-0.01 8.1-0.04 0.01-12.08 0-24.15 0-36.22z"/>
  <path id="path3380" style="" d="m243 35h6.69c-0.02 2.31-0.02 4.63-0.02 6.95-2.23 0.01-4.45 0.01-6.67 0.03v-6.98z"/>
  <path id="path3382" style="" d="m305 35h6.3c0.02 9.33 0 18.67 0.01 28h-6.31v-28z"/>
  <path id="path3384" style="" d="m366.74 35h6.25c-0.03 9.33-0.03 18.67 0 28h-6.25c0-9.33 0.01-18.67 0-28z"/>
  <path id="path3386" style="" d="m417.11 35h6.76c-0.06 9.33-0.04 18.67-0.01 28h-6.73c0.02-9.33 0.04-18.67-0.02-28z"/>
  <path id="path3388" style="" d="m479 35h6.63c-0.02 14.33-0.04 28.67 0.02 43h-14.65v-6.76c2.66 0.01 5.33 0.01 8-0.01v-36.23z"/>
  <path id="path3390" style="" d="m72 56.64c2.25-0.01 4.51-0.01 6.76-0.03 0 2.13 0 4.26 0.02 6.39h-6.78v-6.36z"/>
  <path id="path3392" style="" d="m243 56.63c2.22 0 4.45 0 6.68-0.02-0.01 2.13-0.01 4.26 0 6.39h-6.68v-6.37z"/>
  <path id="path3394" style="" d="m63.97 60.59c1.54 5.72 6.75 11.13 13.02 10.68 12.67-0.04 25.34-0.01 38.01-0.02v-8.02c2.33 0 4.67-0.01 7-0.02v14.79c-14.68 0-29.36-0.01-44.04 0.01-5.43 0.19-10.63-3.36-12.83-8.27-1.54-2.8-1.07-6.09-1.16-9.15z"/>
  <path id="path3396" style="" d="m173.11 60.49c0.39 1.01 0.75 2.03 1.09 3.07 1.16 2.42 3.03 4.38 5.26 5.85 1.67 1.07 3.52 1.97 5.57 1.83 13.06 0.04 26.13 0 39.2 0.01v-8.01c2.26-0.01 4.51-0.02 6.77-0.05v14.81c-14.69 0-29.38 0-44.07 0.01-4.77 0.22-8.96-2.75-11.8-6.36-1.8-3.45-2.66-7.28-2.02-11.16z"/>
  <path id="path3398" style="" d="m236.46 70.56c-2-2.85-1.35-6.43-1.53-9.69 1.17 4.57 4.76 7.73 8.61 10.11 14.14 0.61 28.31 0.11 42.46 0.26v-8.04c2.32 0.02 4.64 0.03 6.96 0.03 0 4.92-0.02 9.85 0.02 14.77-14.69 0.01-29.39-0.02-44.09 0.02-5.11 0.17-10.1-2.94-12.43-7.46z"/>
  <path id="path3400" style="" d="m358.05 60.53c1.67 4.59 4.91 8.41 9.37 10.49 4.51 0.36 9.05 0.23 13.58 0.19v-7.99c2.12 0 4.24-0.02 6.37-0.04 0.52 4.92 0.15 9.88 0.3 14.82-6.06 0-12.12 0.01-18.18-0.01-5.65-1.42-9.7-6.05-11.32-11.51-0.03-1.99-0.1-3.97-0.12-5.95z"/>
  <path id="path3402" style="" d="m305.01 78h6.29c0.01 4.68 0.01 9.35 0.01 14.03h-14.6v-6.17c2.73 0 5.47-0.01 8.2-0.1 0.08-2.59 0.1-5.17 0.1-7.76z"/>
 </g>
</svg>
