<?xml version="1.0" standalone="no"?>
<!DOCTYPE svg PUBLIC "-//W3C//DTD SVG 20010904//EN"
 "http://www.w3.org/TR/2001/REC-SVG-20010904/DTD/svg10.dtd">
<svg version="1.0" xmlns="http://www.w3.org/2000/svg"
 width="700.000000pt" height="700.000000pt" viewBox="0 0 700.000000 700.000000"
 preserveAspectRatio="xMidYMid meet">
<metadata>
Created by potrace 1.11, written by Peter Selinger 2001-2013
</metadata>
<g transform="translate(0.000000,700.000000) scale(0.100000,-0.100000)"
fill="#000000" stroke="none">
<path d="M4458 6195 c110 -54 136 -75 87 -70 -14 2 -25 1 -25 -1 0 -2 64 -35
141 -74 78 -38 165 -87 194 -109 50 -38 134 -128 186 -201 56 -78 138 -296
156 -420 3 -19 5 -650 5 -1401 -1 -1363 -1 -1367 -22 -1423 -21 -56 -112 -186
-167 -239 l-29 -27 -230 -6 c-126 -3 -722 -5 -1326 -5 l-1096 1 0 -265 c-1
-197 2 -265 11 -266 7 0 45 -1 85 -1 l72 1 0 -63 0 -63 -85 -1 -85 0 0 63 0
62 -255 0 c-140 0 -255 -2 -256 -6 0 -3 -2 -141 -5 -305 -2 -165 -6 -301 -8
-303 -2 -2 -150 -4 -330 -3 l-326 0 0 -244 0 -244 48 0 c26 0 64 -1 85 -1 l38
-1 -2 -56 c-2 -32 2 -58 8 -62 15 -9 1151 -7 1160 2 4 3 7 249 8 546 0 296 4
542 7 546 6 6 976 7 2083 4 297 -1 333 1 444 26 124 28 305 114 422 202 69 51
210 199 258 271 63 92 127 234 153 337 l23 89 -1 1340 c0 737 -4 1363 -9 1390
-18 118 -75 259 -151 375 -72 110 -178 214 -343 338 -226 169 -334 232 -501
291 -72 26 -83 27 -305 28 l-230 2 113 -54z"/>
<path d="M2329 5566 c-1 -18 2 -107 6 -161 2 -27 7 -97 11 -155 l6 -105 -52
-48 c-32 -30 -57 -46 -68 -43 -19 5 -249 19 -352 20 l-65 1 0 -1090 c-1 -600
1 -1097 3 -1105 2 -12 19 -14 82 -12 59 2 80 -1 81 -10 0 -7 2 -35 2 -63 l2
-50 255 0 255 0 0 1035 0 1036 50 75 50 75 165 -5 c91 -3 565 -5 1055 -5 l890
-1 0 248 1 247 -83 0 -83 0 -1 33 c-1 17 0 46 1 62 l1 30 -1105 1 c-799 1
-1106 -2 -1107 -10z m189 -508 c0 -25 -11 -44 -46 -81 -44 -44 -49 -47 -94
-46 -27 1 -48 5 -48 9 0 4 8 18 18 31 11 13 31 45 46 72 27 46 29 47 76 47 48
0 49 0 48 -32z"/>
</g>
</svg>
